<svg width="133" height="28" viewBox="0 0 133 28" fill="none" xmlns="http://www.w3.org/2000/svg">
<path d="M13.832 27.252C11.096 27.252 8.72 26.64 6.704 25.416C4.712 24.192 3.188 22.56 2.132 20.52C1.076 18.456 0.548 16.188 0.548 13.716C0.548 11.1 1.112 8.76 2.24 6.696C3.392 4.632 5 3.024 7.064 1.872C9.128 0.695999 11.468 0.107999 14.084 0.107999C15.26 0.107999 16.352 0.239998 17.36 0.503998C18.392 0.743999 19.244 1.032 19.916 1.368C20.588 1.68 21.032 1.944 21.248 2.16L19.484 5.76C18.02 4.464 16.112 3.816 13.76 3.816C12.104 3.816 10.604 4.224 9.26 5.04C7.916 5.856 6.86 7.02 6.092 8.532C5.324 10.044 4.94 11.796 4.94 13.788C4.94 15.612 5.276 17.268 5.948 18.756C6.644 20.244 7.652 21.42 8.972 22.284C10.292 23.148 11.864 23.58 13.688 23.58C15.8 23.58 17.84 22.98 19.808 21.78L20.996 25.2C20.468 25.68 19.496 26.148 18.08 26.604C16.688 27.036 15.272 27.252 13.832 27.252Z" fill="#F98F01"/>
<path d="M25.6549 0.539999H29.6869V27H25.6549V0.539999ZM39.6929 9.864L39.8009 12.744V27H35.7689V0.503998H36.2729L51.8249 17.856L51.6809 14.832V0.539999H55.7129V27H55.1729L39.6929 9.864ZM61.2915 0.539999H72.8835V4.068H65.2875V11.376H71.4075V14.976H65.2875V23.436H74.0715V27H61.2915V0.539999ZM84.9362 14.652L83.2802 10.908L82.5242 14.652L80.0762 27H76.0802L81.5522 0.539999H81.9842L89.2562 14.832L91.4162 19.62L93.5762 14.832L100.704 0.539999H101.1L106.788 27H102.828L100.164 14.652L99.3722 10.908L97.9322 14.652L91.5242 27H91.3082L84.9362 14.652ZM120.019 0.503998L132.763 27H128.119L125.851 21.816H113.719L111.451 27H106.951L119.623 0.503998H120.019ZM118.219 11.772L115.339 18.18H124.267L121.423 11.808L119.875 8.172H119.803L118.219 11.772Z" fill="#202B33"/>
</svg>
